<?xml version="1.0" encoding="UTF-8" standalone="no"?>
<!DOCTYPE svg PUBLIC "-//W3C//DTD SVG 1.1//EN" "http://www.w3.org/Graphics/SVG/1.1/DTD/svg11.dtd">
<svg width="100%" height="100%" viewBox="0 0 2481 3508" version="1.1" xmlns="http://www.w3.org/2000/svg" xmlns:xlink="http://www.w3.org/1999/xlink" xml:space="preserve" xmlns:serif="http://www.serif.com/" style="fill-rule:evenodd;clip-rule:evenodd;stroke-linejoin:round;stroke-miterlimit:2;">
    <rect id="Plan-de-travail1" serif:id="Plan de travail1" x="0" y="0" width="2480.32" height="3507.87" style="fill:none;"/>
    <clipPath id="_clip1">
        <rect id="Plan-de-travail11" serif:id="Plan de travail1" x="0" y="0" width="2480.32" height="3507.87"/>
    </clipPath>
    <g clip-path="url(#_clip1)">
        <path d="M2487.44,335.772C2487.44,335.772 1782.42,444.142 1678.37,603.158C1569.53,769.496 1702.32,959.303 1573.72,1099.97C1457.12,1227.52 1189.01,1124.77 1043.57,1266.2C952.85,1354.43 900.455,1468.92 917.291,1559.31C934.127,1649.7 1048,1809.54 1205.98,1871.95C1386.62,1943.32 1441.31,1903.8 1558.56,1956.88C1691.89,2017.23 1737.98,2079.16 1818.37,2185.11C1898.75,2291.05 1923.55,2395.92 1913.17,2494.56C1903.32,2588.13 1888.77,2674.5 1799.74,2734.88C1729.61,2782.44 1550.22,2847.4 1389.41,2783.95C1287.62,2743.78 1198.83,2644.8 1209.89,2573.28C1230.65,2438.99 1367.7,2383.22 1367.7,2383.22C1367.7,2383.22 1210.11,2354.72 1163.43,2386.77C1116.74,2418.82 1067.15,2482.17 1074.62,2597.54C1081.79,2708.2 1183.77,2838.68 1347.61,2892.06C1535.85,2953.39 1732.33,2896.17 1848.84,2831.91C1965.34,2767.66 2016.97,2647.31 2030.1,2518.72C2044.27,2379.97 1984.46,2221.56 1932.55,2142.16C1875.24,2054.5 1730.6,1901.1 1579.42,1854.49C1445.98,1813.35 1462.27,1848.58 1315.56,1798.3C1149.93,1741.54 1038.68,1624.84 1021.96,1544.46C1006.35,1469.4 1039.62,1401.75 1128.87,1335.15C1252.65,1242.79 1590.9,1294.29 1681.01,1156.47C1771.12,1018.65 1672.07,804.547 1780.29,649.977C1893.07,488.883 2483.88,456.233 2483.88,456.233L2487.44,335.772Z" style="fill:rgb(0,255,3);"/>
        <path d="M2487.44,335.772C2487.44,335.772 1782.42,444.142 1678.37,603.158C1569.53,769.496 1702.32,959.303 1573.72,1099.97C1457.12,1227.52 1189.01,1124.77 1043.57,1266.2C952.85,1354.43 900.455,1468.92 917.291,1559.31C934.127,1649.7 1048,1809.54 1205.98,1871.95C1386.62,1943.32 1441.31,1903.8 1558.56,1956.88C1691.89,2017.23 1737.98,2079.16 1818.37,2185.11C1898.75,2291.05 1923.55,2395.92 1913.17,2494.56C1903.32,2588.13 1888.77,2674.5 1799.74,2734.88C1729.61,2782.44 1550.22,2847.4 1389.41,2783.95C1287.62,2743.78 1198.83,2644.8 1209.89,2573.28C1230.65,2438.99 1367.7,2383.22 1367.7,2383.22C1367.7,2383.22 1210.11,2354.72 1163.43,2386.77C1116.74,2418.82 1067.15,2482.17 1074.62,2597.54C1081.79,2708.2 1183.77,2838.68 1347.61,2892.06C1535.85,2953.39 1732.33,2896.17 1848.84,2831.91C1965.34,2767.66 2016.97,2647.31 2030.1,2518.72C2044.27,2379.97 1984.46,2221.56 1932.55,2142.16C1875.24,2054.5 1730.6,1901.1 1579.42,1854.49C1445.98,1813.35 1462.27,1848.58 1315.56,1798.3C1149.93,1741.54 1038.68,1624.84 1021.96,1544.46C1006.35,1469.4 1039.62,1401.75 1128.87,1335.15C1252.65,1242.79 1590.9,1294.29 1681.01,1156.47C1771.12,1018.65 1672.07,804.547 1780.29,649.977C1893.07,488.883 2483.88,456.233 2483.88,456.233L2487.44,335.772Z" style="fill:url(#_Radial2);"/>
    </g>
    <defs>
        <radialGradient id="_Radial2" cx="0" cy="0" r="1" gradientUnits="userSpaceOnUse" gradientTransform="matrix(1573.27,0,0,2582.49,914.162,1627.02)"><stop offset="0" style="stop-color:rgb(67,111,96);stop-opacity:1"/><stop offset="0.39" style="stop-color:rgb(66,140,132);stop-opacity:1"/><stop offset="1" style="stop-color:rgb(66,146,140);stop-opacity:1"/></radialGradient>
    </defs>
</svg>
